<?xml version="1.0" encoding="utf-8"?>
<!-- Generator: Adobe Illustrator 18.1.1, SVG Export Plug-In . SVG Version: 6.00 Build 0)  -->
<svg version="1.1" xmlns="http://www.w3.org/2000/svg" xmlns:xlink="http://www.w3.org/1999/xlink" x="0px" y="0px"
	 viewBox="0 0 936 776" enable-background="new 0 0 936 776" xml:space="preserve">
<g id="Layer_6">
</g>
<g id="Layer_1">
</g>
<g id="Layer_5">
</g>
<g id="Layer_4">
</g>
<g id="Layer_3">
</g>
<g id="Layer_2">
	<path opacity="0.1" d="M-497.8,619.9c-25.9,10-67.8,8.9-93.7-2.4l-288.3-125.9c-25.8-11.3-25.8-28.5,0.1-38.4l288.8-110.9
		c25.9-9.9,67.8-8.9,93.7,2.4l288.3,125.9c25.8,11.3,25.8,28.5-0.1,38.4L-497.8,619.9z"/>
	<path opacity="0.8" fill="#2D6A99" d="M-497.8,598.8c-25.9,9.9-67.8,8.9-93.7-2.4l-288.3-125.9c-25.8-11.3-25.8-28.5,0.1-38.4
		l288.8-110.9c25.9-9.9,67.8-8.9,93.7,2.4l288.3,125.9c25.8,11.3,25.8,28.5-0.1,38.4L-497.8,598.8z"/>
	<path opacity="0.8" fill="#34C4EC" d="M-494.4,531.1c-25.9,9.9-67.8,8.9-93.7-2.4l-288.3-125.9c-25.8-11.3-25.8-28.5,0.1-38.4
		l288.8-110.9c25.9-9.9,67.8-8.9,93.7,2.4l288.3,125.9c25.9,11.3,25.8,28.5-0.1,38.4L-494.4,531.1z"/>
	<path opacity="0.8" fill="#80A2C0" d="M-494.4,460.7c-25.9,9.9-67.8,8.9-93.7-2.4l-288.3-125.9c-25.8-11.3-25.8-28.5,0.1-38.4
		L-587.5,183c25.9-9.9,67.8-8.9,93.7,2.4l288.3,125.9c25.9,11.3,25.8,28.5-0.1,38.4L-494.4,460.7z"/>
	<polygon opacity="0.7" fill="#34475E" points="-553.5,453.6 -849.8,324 -849.8,292.3 -553.5,421.9 	"/>
	<polygon opacity="0.7" fill="#34475E" points="-498.2,321.7 -582.9,284.3 -582.9,252.6 -498.3,290 	"/>
	<polygon opacity="0.7" fill="#34475E" points="-587.7,192.4 -849.8,293.8 -849.8,325.5 -587.7,224 	"/>
	<polygon opacity="0.7" fill="#34475E" points="-371,293.7 -559.4,366.4 -559.4,398.1 -371,325.3 	"/>
	<polygon opacity="0.7" fill="#34475E" points="-552.8,266.2 -661.1,307.7 -661.1,339.4 -552.9,297.9 	"/>
	<polygon opacity="0.7" fill="#34475E" points="-466,202.4 -531.4,229.7 -531.4,261.4 -466,234.1 	"/>
	<polygon opacity="0.7" fill="#34475E" points="-616.2,345.5 -676.4,368.7 -676.4,400.4 -616.2,377.2 	"/>
	<polygon opacity="0.7" fill="#34475E" points="-495.2,431.1 -241.1,332.6 -241.1,300.9 -495.2,399.5 	"/>
	<polygon opacity="0.7" fill="#34475E" points="-533.5,173 -241.2,300.9 -241.1,332.6 -533.5,204.7 	"/>
	<polygon opacity="0.7" fill="#34475E" points="-484.5,369.2 -547.6,341.2 -547.6,309.5 -484.5,337.6 	"/>
	<polygon opacity="0.7" fill="#34475E" points="-411.3,339.4 -474.4,311.3 -474.4,279.6 -411.3,307.7 	"/>
	<polygon opacity="0.7" fill="#34475E" points="-651.1,290.6 -701.6,268 -701.7,236.3 -651.2,258.9 	"/>
	<polygon opacity="0.7" fill="#34475E" points="-661.1,339.4 -711.6,316.7 -711.6,285.1 -661.1,307.7 	"/>
	<polygon opacity="0.7" fill="#34475E" points="-492.5,279.2 -531.4,262.2 -531.4,230.5 -492.5,247.5 	"/>
	<polygon opacity="0.7" fill="#34475E" points="-429.7,286.5 -468.7,269.4 -468.7,237.7 -429.8,254.8 	"/>
	<polygon opacity="0.7" fill="#34475E" points="-498.2,321.7 -474.5,311.8 -474.4,280.2 -498.2,290 	"/>
	<polygon opacity="0.7" fill="#34475E" points="-492.5,279.2 -468.7,269.4 -468.7,237.7 -492.4,247.5 	"/>
	<polyline opacity="0.2" fill="none" stroke="#000000" stroke-width="2.9662" stroke-miterlimit="10" points="-502.5,439.3 
		-622.7,386.8 -554.3,357.2 -607.7,332.3 -671.5,356.7 -776,307.5 -706.6,277.6 -657.1,299.9 -598.8,276.9 -639.8,258.4 
		-542.6,218.6 -566.6,206.2 	"/>
	<ellipse opacity="0.2" cx="-499" cy="441.4" rx="8.5" ry="4.5"/>
	<polyline fill="none" stroke="#FFFFFF" stroke-width="2.9662" stroke-miterlimit="10" points="-503.3,430.7 -625.8,377.1 
		-557.4,347.6 -610.8,322.6 -674.6,347.1 -779.1,297.9 -709.7,268 -660.2,290.3 -601.9,267.2 -642.9,248.7 -545.7,208.9 
		-572.9,195.1 	"/>
	<ellipse fill="#FFFFFF" cx="-501.7" cy="432" rx="8.5" ry="4.5"/>
	<path opacity="0.1" d="M518.2,652.1c-26.1,10-68.4,8.9-94.5-2.4L133,522.7c-26.1-11.4-26-28.7,0.1-38.8l291.3-111.9
		c26.1-10,68.4-8.9,94.5,2.4l290.8,126.9c26.1,11.4,26,28.7-0.1,38.8L518.2,652.1z"/>
	<path opacity="0.7" fill="#34475E" d="M521.1,633.4c-26.1,10-68.4,8.9-94.5-2.4L135.8,504c-26.1-11.4-26-28.7,0.1-38.8l291.3-111.9
		c26.1-10,68.4-8.9,94.5,2.4l290.8,126.9c26.1,11.4,26,28.7-0.1,38.8L521.1,633.4z"/>
	<path opacity="0.7" fill="#34C4EC" d="M521.1,571.5c-26.1,10-68.4,8.9-94.5-2.4L135.8,442.2c-26.1-11.4-26-28.7,0.1-38.8
		l291.3-111.9c26.1-10,68.4-8.9,94.5,2.4l290.8,126.9c26.1,11.4,26,28.7-0.1,38.8L521.1,571.5z"/>
	<path opacity="0.7" fill="#2D6A99" d="M521.1,501.4c-26.1,10-68.4,8.9-94.5-2.4L135.8,372c-26.1-11.4-26-28.7,0.1-38.8l291.3-111.9
		c26.1-10,68.4-8.9,94.5,2.4l290.8,126.9c26.1,11.4,26,28.7-0.1,38.8L521.1,501.4z"/>
	<path opacity="0.2" d="M259.8,380.1c-6.3,2.4-16.4,2.1-22.7-0.6L167.4,349c-6.3-2.7-6.2-6.9,0-9.3l69.9-26.9
		c6.3-2.4,16.4-2.1,22.7,0.6l69.8,30.5c6.3,2.7,6.2,6.9,0,9.3L259.8,380.1z"/>
	<path opacity="0.2" d="M384.9,311.2c-4.5,1.7-11.9,1.6-16.4-0.4l-50.6-22.1c-4.5-2-4.5-5,0-6.7l50.6-19.5
		c4.5-1.7,11.9-1.6,16.4,0.4l50.6,22.1c4.5,2,4.5,5,0,6.7L384.9,311.2z"/>
	<path opacity="0.2" d="M517.5,365.3c-4.9,1.9-12.9,1.7-17.8-0.5l-54.9-23.9c-4.9-2.1-4.9-5.4,0-7.3l54.9-21.1
		c4.9-1.9,12.9-1.7,17.8,0.5l54.9,23.9c4.9,2.1,4.9,5.4,0,7.3L517.5,365.3z"/>
	<path opacity="0.2" d="M427.9,439.3c-3.3,1.3-8.6,1.1-11.9-0.3l-36.7-16c-3.3-1.4-3.3-3.6,0-4.9l36.8-14.1
		c3.3-1.3,8.6-1.1,11.9,0.3l36.7,16c3.3,1.4,3.3,3.6,0,4.9L427.9,439.3z"/>
	<path opacity="0.2" d="M747.5,396.4c-4.9,1.9-12.7,1.7-17.6-0.5l-54.1-23.6c-4.9-2.1-4.8-5.4,0-7.2l54.2-20.8
		c4.9-1.9,12.7-1.7,17.6,0.5l54.1,23.6c4.9,2.1,4.8,5.4,0,7.2L747.5,396.4z"/>
	<path opacity="0.2" d="M581.1,439.5c-2.7,1-7.2,0.9-9.9-0.3l-30.4-13.3c-2.7-1.2-2.7-3,0-4.1l30.4-11.7c2.7-1,7.2-0.9,9.9,0.3
		l30.4,13.3c2.7,1.2,2.7,3,0,4.1L581.1,439.5z"/>
	<path opacity="0.2" d="M613.3,310.5c-2.8,1.1-7.4,1-10.2-0.3l-31.5-13.8c-2.8-1.2-2.8-3.1,0-4.2l31.6-12.1c2.8-1.1,7.4-1,10.2,0.3
		l31.5,13.8c2.8,1.2,2.8,3.1,0,4.2L613.3,310.5z"/>
	<path opacity="0.2" d="M485.8,258.8c-2.9,1.1-7.5,1-10.4-0.3l-32.1-14c-2.9-1.3-2.9-3.2,0-4.3l32.1-12.3c2.9-1.1,7.5-1,10.4,0.3
		l32.1,14c2.9,1.3,2.9,3.2,0,4.3L485.8,258.8z"/>
	<path opacity="0.2" d="M638.3,367.6c-1.6,0.6-4.2,0.5-5.8-0.1l-17.8-7.8c-1.6-0.7-1.6-1.8,0-2.4l17.8-6.8c1.6-0.6,4.2-0.5,5.8,0.1
		l17.8,7.8c1.6,0.7,1.6,1.8,0,2.4L638.3,367.6z"/>
	<path opacity="0.7" fill="#34C4EC" d="M265,320.5c-6.3,2.4-16.4,2.1-22.7-0.6l-69.8-30.5c-6.3-2.7-6.2-6.9,0-9.3l69.9-26.9
		c6.3-2.4,16.4-2.1,22.7,0.6l69.8,30.5c6.3,2.7,6.2,6.9,0,9.3L265,320.5z"/>
	<path opacity="0.7" fill="#34C4EC" d="M381.7,205.3c-4.5,1.7-11.9,1.6-16.4-0.4l-50.6-22.1c-4.5-2-4.5-5,0-6.7l50.6-19.5
		c4.5-1.7,11.9-1.6,16.4,0.4l50.6,22.1c4.5,2,4.5,5,0,6.7L381.7,205.3z"/>
	<path opacity="0.7" fill="#34C4EC" d="M427.9,379.5c-3.3,1.3-8.6,1.1-11.9-0.3l-36.7-16c-3.3-1.4-3.3-3.6,0-4.9l36.8-14.1
		c3.3-1.3,8.6-1.1,11.9,0.3l36.7,16c3.3,1.4,3.3,3.6,0,4.9L427.9,379.5z"/>
	<path opacity="0.7" fill="#34C4EC" d="M747.5,296.8c-4.9,1.9-12.7,1.7-17.6-0.5l-54.1-23.6c-4.9-2.1-4.8-5.4,0-7.2l54.2-20.8
		c4.9-1.9,12.7-1.7,17.6,0.5l54.1,23.6c4.9,2.1,4.8,5.4,0,7.2L747.5,296.8z"/>
	<path opacity="0.7" fill="#34C4EC" d="M581.1,395c-2.7,1-7.2,0.9-9.9-0.3l-30.4-13.3c-2.7-1.2-2.7-3,0-4.1l30.4-11.7
		c2.7-1,7.2-0.9,9.9,0.3l30.4,13.3c2.7,1.2,2.7,3,0,4.1L581.1,395z"/>
	<path opacity="0.7" fill="#34C4EC" d="M613.3,196.1c-2.8,1.1-7.4,1-10.2-0.3l-31.5-13.8c-2.8-1.2-2.8-3.1,0-4.2l31.6-12.1
		c2.8-1.1,7.4-1,10.2,0.3l31.5,13.8c2.8,1.2,2.8,3.1,0,4.2L613.3,196.1z"/>
	<path opacity="0.7" fill="#34C4EC" d="M696.9,145.6c-2.4,0.9-6.2,0.8-8.6-0.2l-26.5-11.6c-2.4-1-2.4-2.6,0-3.5l26.6-10.2
		c2.4-0.9,6.2-0.8,8.6,0.2l26.5,11.6c2.4,1,2.4,2.6,0,3.5L696.9,145.6z"/>
	<path opacity="0.2" d="M696.9,345.8c-2.4,0.9-6.2,0.8-8.6-0.2L661.8,334c-2.4-1-2.4-2.6,0-3.5l26.6-10.2c2.4-0.9,6.2-0.8,8.6,0.2
		l26.5,11.6c2.4,1,2.4,2.6,0,3.5L696.9,345.8z"/>
	<path opacity="0.7" fill="#34C4EC" d="M491.8,124.6c-2.9,1.1-7.5,1-10.4-0.3l-32.1-14c-2.9-1.3-2.9-3.2,0-4.3l32.1-12.3
		c2.9-1.1,7.5-1,10.4,0.3l32.1,14c2.9,1.3,2.9,3.2,0,4.3L491.8,124.6z"/>
	<path opacity="0.7" fill="#34C4EC" d="M517.5,297.2c-4.9,1.9-12.9,1.7-17.8-0.5l-54.9-23.9c-4.9-2.1-4.9-5.4,0-7.3l54.9-21.1
		c4.9-1.9,12.9-1.7,17.8,0.5l54.9,23.9c4.9,2.1,4.9,5.4,0,7.3L517.5,297.2z"/>
	<path opacity="0.7" fill="#34C4EC" d="M638.3,315.6c-1.6,0.6-4.2,0.5-5.8-0.1l-17.8-7.8c-1.6-0.7-1.6-1.8,0-2.4l17.8-6.8
		c1.6-0.6,4.2-0.5,5.8,0.1l17.8,7.8c1.6,0.7,1.6,1.8,0,2.4L638.3,315.6z"/>
	<path opacity="0.7" fill="#34C4EC" d="M303.4,369.9c-1.6,0.6-4.2,0.5-5.8-0.1l-17.8-7.8c-1.6-0.7-1.6-1.8,0-2.4l17.8-6.8
		c1.6-0.6,4.2-0.5,5.8,0.1l17.8,7.8c1.6,0.7,1.6,1.8,0,2.4L303.4,369.9z"/>
	<path opacity="0.2" d="M303.4,420.6c-1.6,0.6-4.2,0.5-5.8-0.1l-17.8-7.8c-1.6-0.7-1.6-1.8,0-2.4l17.8-6.8c1.6-0.6,4.2-0.5,5.8,0.1
		l17.8,7.8c1.6,0.7,1.6,1.8,0,2.4L303.4,420.6z"/>
	<path opacity="0.1" d="M508.6,1486.8c-26.1,10-68.3,8.9-94.3-2.4l-290.2-126.7c-26-11.4-26-28.7,0.1-38.7l290.6-111.7
		c26.1-10,68.3-8.9,94.3,2.4l290.2,126.7c26,11.4,26,28.7-0.1,38.7L508.6,1486.8z"/>
	<path opacity="0.8" fill="#34C4EC" d="M508.6,1465.6c-26.1,10-68.3,8.9-94.3-2.4l-290.2-126.7c-26-11.4-26-28.7,0.1-38.7
		l290.6-111.7c26.1-10,68.3-8.9,94.3,2.4l290.2,126.7c26,11.4,26,28.7-0.1,38.7L508.6,1465.6z"/>
	<g>
		<path opacity="0.7" fill="#34475E" d="M299.7,1311.4c-12.2,4.7-32,4.2-44.2-1.1l-136-59.4c-12.2-5.3-12.2-13.4,0-18.1l136.2-52.3
			c12.2-4.7,32-4.2,44.2,1.1l136,59.4c12.2,5.3,12.2,13.4,0,18.1L299.7,1311.4z"/>
		<path opacity="0.7" fill="#34475E" d="M485.8,1394.2c-12.2,4.7-32,4.2-44.2-1.1l-136-59.4c-12.2-5.3-12.2-13.4,0-18.1l136.2-52.3
			c12.2-4.7,32-4.2,44.2,1.1l136,59.4c12.2,5.3,12.2,13.4,0,18.1L485.8,1394.2z"/>
		<path opacity="0.7" fill="#34475E" d="M489.9,1238.6c-12.2,4.7-32,4.2-44.2-1.1l-136-59.4c-12.2-5.3-12.2-13.4,0-18.1l136.2-52.3
			c12.2-4.7,32-4.2,44.2,1.1l136,59.4c12.2,5.3,12.2,13.4,0,18.1L489.9,1238.6z"/>
		<path opacity="0.7" fill="#34475E" d="M676.1,1321.4c-12.2,4.7-32,4.2-44.2-1.1l-136-59.4c-12.2-5.3-12.2-13.4,0-18.1l136.2-52.3
			c12.2-4.7,32-4.2,44.2,1.1l136,59.4c12.2,5.3,12.2,13.4,0,18.1L676.1,1321.4z"/>
	</g>
	<path fill="#72B8C2" d="M464.9,1076.6"/>
	<path opacity="0.7" fill="#72B8C2" d="M508.6,1312.9c-26.1,10-68.3,8.9-94.3-2.4l-290.2-126.7c-26-11.4-26-28.7,0.1-38.7
		l290.6-111.7c26.1-10,68.3-8.9,94.3,2.4l290.2,126.7c26,11.4,26,28.7-0.1,38.7L508.6,1312.9z"/>
	<path opacity="0.2" d="M686.4,1215.4c-6.1,2.3-16,2.1-22-0.6l-274.8-116.7c-6.1-2.7-6.1-6.7,0-9l67.9-26.1c6.1-2.3,16-2.1,22,0.6
		l274.8,116.7c6.1,2.7,6.1,6.7,0,9L686.4,1215.4z"/>
	<path opacity="0.2" d="M297,1195.5c-1.8,0.7-4.8,0.6-6.6-0.2l-82.2-34.9c-1.8-0.8-1.8-2,0-2.7l20.3-7.8c1.8-0.7,4.8-0.6,6.6,0.2
		l82.2,34.9c1.8,0.8,1.8,2,0,2.7L297,1195.5z"/>
	<path opacity="0.2" d="M398.3,1237.8c-1.8,0.7-4.8,0.6-6.6-0.2l-82.2-34.9c-1.8-0.8-1.8-2,0-2.7l20.3-7.8c1.8-0.7,4.8-0.6,6.6,0.2
		l82.2,34.9c1.8,0.8,1.8,2,0,2.7L398.3,1237.8z"/>
	<path opacity="0.2" d="M496,1280.7c-1.8,0.7-4.8,0.6-6.6-0.2l-82.2-34.9c-1.8-0.8-1.8-2,0-2.7l20.3-7.8c1.8-0.7,4.8-0.6,6.6,0.2
		l82.2,34.9c1.8,0.8,1.8,2,0,2.7L496,1280.7z"/>
	<path opacity="0.2" d="M472.5,1296.8c-6.1,2.3-16,2.1-22-0.6l-274.8-116.7c-6.1-2.7-6.1-6.7,0-9l8.1-4c6.1-2.3,16-2.1,22,0.6
		l274.8,116.7c6.1,2.7,6.1,6.7,0,9L472.5,1296.8z"/>
	<ellipse opacity="0.2" cx="346.1" cy="1139.2" rx="38.9" ry="22.2"/>
	<g>
		<path opacity="0.7" fill="#FDFDFE" d="M683.2,1187.9c-6.1,2.3-16,2.1-22-0.6l-274.8-116.7c-6.1-2.7-6.1-6.7,0-9l67.9-26.1
			c6.1-2.3,16-2.1,22,0.6l274.8,116.7c6.1,2.7,6.1,6.7,0,9L683.2,1187.9z"/>
		<path opacity="0.7" fill="#FDFDFE" d="M293.8,1168c-1.8,0.7-4.8,0.6-6.6-0.2l-82.2-34.9c-1.8-0.8-1.8-2,0-2.7l20.3-7.8
			c1.8-0.7,4.8-0.6,6.6,0.2l82.2,34.9c1.8,0.8,1.8,2,0,2.7L293.8,1168z"/>
		<path opacity="0.7" fill="#FDFDFE" d="M395,1210.4c-1.8,0.7-4.8,0.6-6.6-0.2l-82.2-34.9c-1.8-0.8-1.8-2,0-2.7l20.3-7.8
			c1.8-0.7,4.8-0.6,6.6,0.2l82.2,34.9c1.8,0.8,1.8,2,0,2.7L395,1210.4z"/>
		<path opacity="0.7" fill="#FDFDFE" d="M492.7,1253.2c-1.8,0.7-4.8,0.6-6.6-0.2l-82.2-34.9c-1.8-0.8-1.8-2,0-2.7l20.3-7.8
			c1.8-0.7,4.8-0.6,6.6,0.2l82.2,34.9c1.8,0.8,1.8,2,0,2.7L492.7,1253.2z"/>
		<path opacity="0.7" fill="#FDFDFE" d="M469.3,1269.3c-6.1,2.3-16,2.1-22-0.6l-274.8-116.7c-6.1-2.7-6.1-6.7,0-9l8.1-4
			c6.1-2.3,16-2.1,22,0.6l274.8,116.7c6.1,2.7,6.1,6.7,0,9L469.3,1269.3z"/>
		<ellipse opacity="0.7" fill="#FDFDFE" cx="342.9" cy="1111.7" rx="38.9" ry="22.2"/>
	</g>
	<path opacity="0.8" fill="#34475E" d="M-493.1,1524.4c-26.4,10.1-69.2,9-95.5-2.5l-294-128.3c-26.4-11.5-26.3-29,0.1-39.2
		l294.4-113.1c26.4-10.1,69.2-9,95.5,2.5l294,128.3c26.4,11.5,26.3,29.1-0.1,39.2L-493.1,1524.4z"/>
	<path opacity="0.1" fill="#070909" d="M-493.1,1546.7c-26.4,10.1-69.2,9-95.5-2.5l-294-128.3c-26.4-11.5-26.3-29,0.1-39.2
		l294.4-113.1c26.4-10.1,69.2-9,95.5,2.5l294,128.3c26.4,11.5,26.3,29.1-0.1,39.2L-493.1,1546.7z"/>
	<path opacity="0.1" fill="#070909" d="M518,2437.8c-26.4,10.1-69.2,9-95.5-2.5l-294-128.3c-26.4-11.5-26.3-29,0.1-39.2L423,2154.7
		c26.4-10.1,69.2-9,95.5,2.5l294,128.3c26.4,11.5,26.3,29.1-0.1,39.2L518,2437.8z"/>
	<path opacity="0.7" fill="#72B8C2" d="M-493.1,1450.9c-26.4,10.1-69.2,9-95.5-2.5l-294-128.3c-26.4-11.5-26.3-29,0.1-39.2
		l294.4-113.1c26.4-10.1,69.2-9,95.5,2.5l294,128.3c26.4,11.5,26.3,29.1-0.1,39.2L-493.1,1450.9z"/>
	<path opacity="0.7" fill="#2D6A99" d="M-493.1,1375.9c-26.4,10.1-69.2,9-95.5-2.5l-294-128.3c-26.4-11.5-26.3-29,0.1-39.2
		l294.4-113.1c26.4-10.1,69.2-9,95.5,2.5l294,128.3c26.4,11.5,26.3,29.1-0.1,39.2L-493.1,1375.9z"/>
	<g>
		<polygon opacity="0.2" fill="#070909" points="-625.7,1186.2 -550.9,1219.1 -479.9,1189.7 -550.9,1157.3 		"/>
		<g>
			<polygon opacity="0.8" fill="#72B8C2" points="-625.7,962.5 -550.9,995.1 -550.9,1193.3 -625.7,1159.4 			"/>
			<polygon opacity="0.8" fill="#68AAAE" points="-550.9,995.1 -550.9,1193.3 -479.9,1165.5 -479.9,965.7 			"/>
			<polygon opacity="0.8" fill="#767778" points="-625.7,962.2 -550.9,995.1 -479.9,965.7 -550.9,933.3 			"/>
		</g>
	</g>
	<g>
		<polygon opacity="0.2" fill="#070909" points="-455.5,1230.6 -364.7,1273.8 -273.2,1236.3 -364.4,1195.3 		"/>
		<g>
			<polygon opacity="0.7" fill="#202933" points="-364.4,1063.4 -279.7,1030.2 -279.7,1214.2 -364.4,1249.3 			"/>
			<polygon opacity="0.7" fill="#242F3B" points="-455.9,963.2 -364.4,1063.4 -364.4,1249.3 -455.9,1207.2 			"/>
			<polygon opacity="0.8" fill="#767778" points="-455.9,963.2 -363.9,932.6 -279.7,1030.2 -364.4,1063.4 			"/>
		</g>
	</g>
	<g>
		<polygon opacity="0.2" fill="#070909" points="-781.3,1227.8 -715.3,1258.8 -649.5,1231.3 -715.4,1201.8 		"/>
		<g>
			<polygon opacity="0.7" fill="#34C4EC" points="-783.3,1020.8 -715.9,1147.3 -715.4,1230.3 -783.3,1199.5 			"/>
			<polygon opacity="0.7" fill="#30B9D8" points="-715.9,1147.3 -715.4,1230.3 -651,1205.1 -651,1023.8 			"/>
			<polygon opacity="0.8" fill="#767778" points="-783.3,1020.6 -715.9,1147.3 -651,1023.8 -717.3,993.5 			"/>
		</g>
	</g>
	<g>
		<polygon opacity="0.2" fill="#070909" points="-642.2,1274.3 -459.3,1273.2 -550.6,1313.3 		"/>
		<g>
			<polygon opacity="0.8" fill="#7C9CB5" points="-550.7,1173.6 -550.7,1286.3 -459.5,1249.9 -459.5,1133.5 			"/>
			<polygon opacity="0.8" fill="#80A2C0" points="-642.3,1134.6 -642.3,1243.7 -550.7,1286.3 -550.7,1173.6 			"/>
			<polygon opacity="0.8" fill="#767778" points="-642.3,1134.6 -459.5,1133.5 -550.7,1173.6 			"/>
		</g>
	</g>
	<path opacity="0.8" fill="#418BBC" d="M518,2415.5c-26.4,10.1-69.2,9-95.5-2.5l-294-128.3c-26.4-11.5-26.3-29,0.1-39.2L423,2132.4
		c26.4-10.1,69.2-9,95.5,2.5l294,128.3c26.4,11.5,26.3,29.1-0.1,39.2L518,2415.5z"/>
	<path opacity="0.8" fill="#34475E" d="M518,2342c-26.4,10.1-69.2,9-95.5-2.5l-294-128.3c-26.4-11.5-26.3-29,0.1-39.2L423,2058.9
		c26.4-10.1,69.2-9,95.5,2.5l294,128.3c26.4,11.5,26.3,29.1-0.1,39.2L518,2342z"/>
	<path opacity="0.8" fill="#34C4EC" d="M518,2267c-26.4,10.1-69.2,9-95.5-2.5l-294-128.3c-26.4-11.5-26.3-29,0.1-39.2L423,1983.9
		c26.4-10.1,69.2-9,95.5,2.5l294,128.3c26.4,11.5,26.3,29.1-0.1,39.2L518,2267z"/>
	<path opacity="0.1" fill="#070909" d="M256.2,2162.8c62.4-23.9,124.2-47.7,186.3-71.5c4.3,1.9,8.5,3.8,13.1,5.8
		c1.4-0.6,2.6-1,3.7-1.4c17.8-6.8,35.8-13.6,53.4-20.5c30.5-12,72-15,98-7.9c14.4,4,20.8,11,26.4,18.2c4,14.5-6.2,25.2-27.1,36.1
		c-2.6,1.4-5.8,2.6-8.9,3.9c-18.4,7.1-22.7,7.8-41.1,14.9c-1.2,0.4-2.3,0.9-3.8,1.4c4,1.8,7.7,3.6,11.7,5.2c1.9,0.8,1.5,1.3-1.1,2.3
		c-59.9,23-119.8,45.9-179.6,68.9c-2.9,1.1-4.3,1.1-6.2,0.2c-26.6-11.9-53.3-23.8-80-35.7c-13.9-6.2-27.8-12.4-41.7-18.6
		C258.3,2163.8,257.3,2163.4,256.2,2162.8z M541.6,2135.3c1.3-0.5,2.4-0.9,3.4-1.3c15.3-5.9,30.8-11.7,45.9-17.7
		c16.3-6.5,25.3-13.8,26.5-21.7c1.3-9-10.6-14.2-26.6-17.7c-18.6-4.1-49.2-0.6-70.8,7.5c-16,6-31.7,12.1-47.5,18.2
		c-0.8,0.3-1.4,0.6-2.2,1C494.1,2114.1,517.7,2124.6,541.6,2135.3z M390.9,2175.8c1-0.5,1.7-0.9,2.3-1.2c9.6-5.3,19.3-10.6,28.7-16
		c2-1.1,3.8-1.6,6.8-1.7c11.5-0.5,22.8-4.9,24.6-9.5c1.9-4.9-6.2-8.2-18.3-7.5c-11.4,0.7-22.4,5.2-23.7,9.9c-0.3,1.1-1.4,1.8-4,2.5
		c-11.7,3-23.3,6.1-34.9,9.2c-2.7,0.7-5.4,1.5-8.5,2.4C373.2,2167.9,381.9,2171.8,390.9,2175.8z"/>
	<path opacity="0.7" fill="#FDFDFE" d="M257.1,2133.1c62.4-23.9,124.2-47.7,186.3-71.5c4.3,1.9,8.5,3.8,13.1,5.8
		c1.4-0.6,2.6-1,3.7-1.4c17.8-6.8,35.8-13.6,53.4-20.5c30.5-12,72-15,98-7.9c14.4,4,21.4,8.2,26.9,15.4c3.8,10.5,1.4,23.4-19.5,34.2
		c-2.6,1.4-5.6,3.7-8.7,4.9c-18.4,7.1-31,11.4-49.4,18.5c-1.2,0.4-2.3,0.9-3.8,1.4c4,1.8,7.7,3.6,11.7,5.2c1.9,0.8,1.5,1.3-1.1,2.3
		c-59.9,23-119.8,45.9-179.6,68.9c-2.9,1.1-4.3,1.1-6.2,0.3c-26.6-11.9-53.3-23.8-80-35.7c-13.9-6.2-27.8-12.4-41.7-18.6
		C259.2,2134.1,258.3,2133.6,257.1,2133.1z M542.6,2105.5c1.3-0.5,2.4-0.9,3.4-1.3c15.3-5.9,30.8-11.7,45.9-17.7
		c16.3-6.5,25.3-13.8,26.5-21.7c1.3-9-10.6-14.2-26.6-17.7c-18.6-4.1-49.2-0.6-70.8,7.5c-16,6-31.7,12.1-47.5,18.2
		c-0.8,0.3-1.4,0.6-2.2,1C495.1,2084.4,518.6,2094.9,542.6,2105.5z M391.9,2146.1c1-0.5,1.7-0.9,2.3-1.2c9.6-5.3,19.3-10.6,28.7-16
		c2-1.1,3.8-1.6,6.8-1.7c11.5-0.5,22.8-4.9,24.6-9.5c1.9-4.9-6.2-8.2-18.3-7.5c-11.4,0.7-22.4,5.2-23.7,9.9c-0.3,1.1-1.4,1.8-4,2.5
		c-11.7,3-23.3,6.1-34.9,9.2c-2.7,0.7-5.4,1.5-8.5,2.4C374.1,2138.2,382.8,2142.1,391.9,2146.1z"/>
</g>
</svg>
