<?xml version="1.0" encoding="utf-8"?>
<!-- Generator: Adobe Illustrator 18.1.1, SVG Export Plug-In . SVG Version: 6.00 Build 0)  -->
<svg version="1.1" xmlns="http://www.w3.org/2000/svg" xmlns:xlink="http://www.w3.org/1999/xlink" x="0px" y="0px"
	 viewBox="0 0 936 776" enable-background="new 0 0 936 776" xml:space="preserve">
<g id="Layer_6">
</g>
<g id="Layer_1">
</g>
<g id="Layer_5">
</g>
<g id="Layer_4">
</g>
<g id="Layer_3">
</g>
<g id="Layer_2">
	<path opacity="0.8" fill="#34475E" d="M518,669.3c-26.4,10.1-69.2,9-95.5-2.5l-294-128.3c-26.4-11.5-26.3-29,0.1-39.2L423,386.2
		c26.4-10.1,69.2-9,95.5,2.5l294,128.3c26.4,11.5,26.3,29.1-0.1,39.2L518,669.3z"/>
	<path opacity="0.1" fill="#070909" d="M518,691.6c-26.4,10.1-69.2,9-95.5-2.5l-294-128.3c-26.4-11.5-26.3-29,0.1-39.2L423,408.5
		c26.4-10.1,69.2-9,95.5,2.5l294,128.3c26.4,11.5,26.3,29.1-0.1,39.2L518,691.6z"/>
	<path opacity="0.7" fill="#72B8C2" d="M518,595.8c-26.4,10.1-69.2,9-95.5-2.5L128.5,465c-26.4-11.5-26.3-29,0.1-39.2L423,312.7
		c26.4-10.1,69.2-9,95.5,2.5l294,128.3c26.4,11.5,26.3,29.1-0.1,39.2L518,595.8z"/>
	<path opacity="0.7" fill="#2D6A99" d="M518,520.8c-26.4,10.1-69.2,9-95.5-2.5L128.5,390c-26.4-11.5-26.3-29,0.1-39.2L423,237.7
		c26.4-10.1,69.2-9,95.5,2.5l294,128.3c26.4,11.5,26.3,29.1-0.1,39.2L518,520.8z"/>
	<g>
		<polygon opacity="0.2" fill="#070909" points="385.4,331.1 460.2,364 531.2,334.6 460.2,302.2 		"/>
		<g>
			<polygon opacity="0.8" fill="#72B8C2" points="387.5,166.9 462.3,199.6 460.2,338.2 385.4,304.3 			"/>
			<polygon opacity="0.8" fill="#68AAAE" points="462.3,199.6 460.2,338.2 531.2,310.4 533.3,170.2 			"/>
			<polygon opacity="0.8" fill="#767778" points="387.5,166.7 462.3,199.6 533.3,170.2 462.3,137.8 			"/>
		</g>
	</g>
	<polygon opacity="0.2" fill="#070909" points="555.6,375.5 646.4,418.7 737.9,381.2 646.7,340.2 	"/>
	<polygon opacity="0.7" fill="#202933" points="646.7,280.7 731.4,247.6 731.4,359.1 646.7,394.2 	"/>
	<polygon opacity="0.7" fill="#242F3B" points="555.2,180.6 646.7,280.7 646.7,394.2 555.2,352.1 	"/>
	<polygon opacity="0.8" fill="#767778" points="555.2,180.6 647.2,149.9 731.4,247.6 646.7,280.7 	"/>
	<g>
		<polygon opacity="0.2" fill="#070909" points="229.8,372.7 295.8,403.7 361.6,376.2 295.7,346.7 		"/>
		<g>
			<polygon opacity="0.7" fill="#34C4EC" points="227.8,211.8 295.2,292.2 295.2,376 227.8,344.4 			"/>
			<polygon opacity="0.7" fill="#30B9D8" points="295.2,292.2 295.2,376 360.1,350 360.1,214.7 			"/>
			<polygon opacity="0.8" fill="#767778" points="227.8,211.5 295.2,292.2 360.1,214.7 293.8,184.5 			"/>
		</g>
	</g>
	<g>
		<polygon opacity="0.2" fill="#070909" points="368.9,419.2 551.8,418.1 460.5,458.2 		"/>
		<g>
			<polygon opacity="0.8" fill="#7C9CB5" points="460.4,318.5 460.4,431.2 551.6,394.8 551.6,278.4 			"/>
			<polygon opacity="0.8" fill="#80A2C0" points="368.8,279.5 368.8,388.6 460.4,431.2 460.4,318.5 			"/>
			<polygon opacity="0.8" fill="#767778" points="368.8,279.5 551.6,278.4 460.4,318.5 			"/>
		</g>
	</g>
</g>
</svg>
