<?xml version="1.0" encoding="utf-8"?>
<!-- Generator: Adobe Illustrator 18.1.1, SVG Export Plug-In . SVG Version: 6.00 Build 0)  -->
<svg version="1.1" xmlns="http://www.w3.org/2000/svg" xmlns:xlink="http://www.w3.org/1999/xlink" x="0px" y="0px"
	 viewBox="0 0 936 776" enable-background="new 0 0 936 776" xml:space="preserve">
<g id="Layer_6">
</g>
<g id="Layer_1">
</g>
<g id="Layer_5">
</g>
<g id="Layer_4">
</g>
<g id="Layer_3">
</g>
<g id="Layer_2">
	<path opacity="0.1" d="M-497.8-235.2c-25.9,10-67.8,8.9-93.7-2.4l-288.3-125.9c-25.8-11.3-25.8-28.5,0.1-38.4l288.8-110.9
		c25.9-9.9,67.8-8.9,93.7,2.4l288.3,125.9c25.8,11.3,25.8,28.5-0.1,38.4L-497.8-235.2z"/>
	<path opacity="0.8" fill="#2D6A99" d="M-497.8-256.3c-25.9,9.9-67.8,8.9-93.7-2.4l-288.3-125.9c-25.8-11.3-25.8-28.5,0.1-38.4
		l288.8-110.9c25.9-9.9,67.8-8.9,93.7,2.4l288.3,125.9c25.8,11.3,25.8,28.5-0.1,38.4L-497.8-256.3z"/>
	<path opacity="0.8" fill="#34C4EC" d="M-494.4-323.9c-25.9,9.9-67.8,8.9-93.7-2.4l-288.3-125.9c-25.8-11.3-25.8-28.5,0.1-38.4
		l288.8-110.9c25.9-9.9,67.8-8.9,93.7,2.4l288.3,125.9c25.9,11.3,25.8,28.5-0.1,38.4L-494.4-323.9z"/>
	<path opacity="0.8" fill="#80A2C0" d="M-494.4-394.4c-25.9,9.9-67.8,8.9-93.7-2.4l-288.3-125.9c-25.8-11.3-25.8-28.5,0.1-38.4
		l288.8-110.9c25.9-9.9,67.8-8.9,93.7,2.4l288.3,125.9c25.9,11.3,25.8,28.5-0.1,38.4L-494.4-394.4z"/>
	<polygon opacity="0.7" fill="#34475E" points="-553.5,-401.5 -849.8,-531.1 -849.8,-562.7 -553.5,-433.2 	"/>
	<polygon opacity="0.7" fill="#34475E" points="-498.2,-533.4 -582.9,-570.8 -582.9,-602.5 -498.3,-565.1 	"/>
	<polygon opacity="0.7" fill="#34475E" points="-587.7,-662.7 -849.8,-561.3 -849.8,-529.6 -587.7,-631 	"/>
	<polygon opacity="0.7" fill="#34475E" points="-371,-561.4 -559.4,-488.7 -559.4,-457 -371,-529.7 	"/>
	<polygon opacity="0.7" fill="#34475E" points="-552.8,-588.9 -661.1,-547.4 -661.1,-515.7 -552.9,-557.2 	"/>
	<polygon opacity="0.7" fill="#34475E" points="-466,-652.7 -531.4,-625.4 -531.4,-593.7 -466,-621 	"/>
	<polygon opacity="0.7" fill="#34475E" points="-616.2,-509.6 -676.4,-486.4 -676.4,-454.7 -616.2,-477.9 	"/>
	<polygon opacity="0.7" fill="#34475E" points="-495.2,-423.9 -241.1,-522.5 -241.1,-554.2 -495.2,-455.6 	"/>
	<polygon opacity="0.7" fill="#34475E" points="-533.5,-682.1 -241.2,-554.2 -241.1,-522.5 -533.5,-650.4 	"/>
	<polygon opacity="0.7" fill="#34475E" points="-484.5,-485.8 -547.6,-513.9 -547.6,-545.6 -484.5,-517.5 	"/>
	<polygon opacity="0.7" fill="#34475E" points="-411.3,-515.7 -474.4,-543.8 -474.4,-575.5 -411.3,-547.4 	"/>
	<polygon opacity="0.7" fill="#34475E" points="-651.1,-564.5 -701.6,-587.1 -701.7,-618.8 -651.2,-596.2 	"/>
	<polygon opacity="0.7" fill="#34475E" points="-661.1,-515.7 -711.6,-538.3 -711.6,-570 -661.1,-547.4 	"/>
	<polygon opacity="0.7" fill="#34475E" points="-492.5,-575.9 -531.4,-592.9 -531.4,-624.6 -492.5,-607.6 	"/>
	<polygon opacity="0.7" fill="#34475E" points="-429.7,-568.6 -468.7,-585.7 -468.7,-617.3 -429.8,-600.3 	"/>
	<polygon opacity="0.7" fill="#34475E" points="-498.2,-533.4 -474.5,-543.3 -474.4,-574.9 -498.2,-565.1 	"/>
	<polygon opacity="0.7" fill="#34475E" points="-492.5,-575.9 -468.7,-585.7 -468.7,-617.4 -492.4,-607.6 	"/>
	<polyline opacity="0.2" fill="none" stroke="#000000" stroke-width="2.9662" stroke-miterlimit="10" points="-502.5,-415.8 
		-622.7,-468.3 -554.3,-497.9 -607.7,-522.8 -671.5,-498.3 -776,-547.6 -706.6,-577.5 -657.1,-555.2 -598.8,-578.2 -639.8,-596.7 
		-542.6,-636.5 -566.6,-648.9 	"/>
	<ellipse opacity="0.2" cx="-499" cy="-413.7" rx="8.5" ry="4.5"/>
	<polyline fill="none" stroke="#FFFFFF" stroke-width="2.9662" stroke-miterlimit="10" points="-503.3,-424.4 -625.8,-477.9 
		-557.4,-507.5 -610.8,-532.4 -674.6,-508 -779.1,-557.2 -709.7,-587.1 -660.2,-564.8 -601.9,-587.9 -642.9,-606.3 -545.7,-646.1 
		-572.9,-659.9 	"/>
	<ellipse fill="#FFFFFF" cx="-501.7" cy="-423.1" rx="8.5" ry="4.5"/>
	<path opacity="0.1" d="M518.2-203c-26.1,10-68.4,8.9-94.5-2.4L133-332.4c-26.1-11.4-26-28.7,0.1-38.8L424.3-483
		c26.1-10,68.4-8.9,94.5,2.4l290.8,126.9c26.1,11.4,26,28.7-0.1,38.8L518.2-203z"/>
	<path opacity="0.7" fill="#34475E" d="M521.1-221.7c-26.1,10-68.4,8.9-94.5-2.4L135.8-351.1c-26.1-11.4-26-28.7,0.1-38.8
		l291.3-111.9c26.1-10,68.4-8.9,94.5,2.4l290.8,126.9c26.1,11.4,26,28.7-0.1,38.8L521.1-221.7z"/>
	<path opacity="0.7" fill="#34C4EC" d="M521.1-283.5c-26.1,10-68.4,8.9-94.5-2.4L135.8-412.9c-26.1-11.4-26-28.7,0.1-38.8
		l291.3-111.9c26.1-10,68.4-8.9,94.5,2.4l290.8,126.9c26.1,11.4,26,28.7-0.1,38.8L521.1-283.5z"/>
	<path opacity="0.7" fill="#2D6A99" d="M521.1-353.7c-26.1,10-68.4,8.9-94.5-2.4L135.8-483.1c-26.1-11.4-26-28.7,0.1-38.8
		l291.3-111.9c26.1-10,68.4-8.9,94.5,2.4l290.8,126.9c26.1,11.4,26,28.7-0.1,38.8L521.1-353.7z"/>
	<path opacity="0.2" d="M259.8-475c-6.3,2.4-16.4,2.1-22.7-0.6l-69.8-30.5c-6.3-2.7-6.2-6.9,0-9.3l69.9-26.9
		c6.3-2.4,16.4-2.1,22.7,0.6l69.8,30.5c6.3,2.7,6.2,6.9,0,9.3L259.8-475z"/>
	<path opacity="0.2" d="M384.9-543.8c-4.5,1.7-11.9,1.6-16.4-0.4l-50.6-22.1c-4.5-2-4.5-5,0-6.7l50.6-19.5
		c4.5-1.7,11.9-1.6,16.4,0.4l50.6,22.1c4.5,2,4.5,5,0,6.7L384.9-543.8z"/>
	<path opacity="0.2" d="M517.5-489.7c-4.9,1.9-12.9,1.7-17.8-0.5l-54.9-23.9c-4.9-2.1-4.9-5.4,0-7.3l54.9-21.1
		c4.9-1.9,12.9-1.7,17.8,0.5l54.9,23.9c4.9,2.1,4.9,5.4,0,7.3L517.5-489.7z"/>
	<path opacity="0.2" d="M427.9-415.8c-3.3,1.3-8.6,1.1-11.9-0.3l-36.7-16c-3.3-1.4-3.3-3.6,0-4.9l36.8-14.1
		c3.3-1.3,8.6-1.1,11.9,0.3l36.7,16c3.3,1.4,3.3,3.6,0,4.9L427.9-415.8z"/>
	<path opacity="0.2" d="M747.5-458.7c-4.9,1.9-12.7,1.7-17.6-0.5l-54.1-23.6c-4.9-2.1-4.8-5.4,0-7.2l54.2-20.8
		c4.9-1.9,12.7-1.7,17.6,0.5l54.1,23.6c4.9,2.1,4.8,5.4,0,7.2L747.5-458.7z"/>
	<path opacity="0.2" d="M581.1-415.6c-2.7,1-7.2,0.9-9.9-0.3l-30.4-13.3c-2.7-1.2-2.7-3,0-4.1l30.4-11.7c2.7-1,7.2-0.9,9.9,0.3
		l30.4,13.3c2.7,1.2,2.7,3,0,4.1L581.1-415.6z"/>
	<path opacity="0.2" d="M613.3-544.6c-2.8,1.1-7.4,1-10.2-0.3l-31.5-13.8c-2.8-1.2-2.8-3.1,0-4.2l31.6-12.1c2.8-1.1,7.4-1,10.2,0.3
		l31.5,13.8c2.8,1.2,2.8,3.1,0,4.2L613.3-544.6z"/>
	<path opacity="0.2" d="M485.8-596.3c-2.9,1.1-7.5,1-10.4-0.3l-32.1-14c-2.9-1.3-2.9-3.2,0-4.3l32.1-12.3c2.9-1.1,7.5-1,10.4,0.3
		l32.1,14c2.9,1.3,2.9,3.2,0,4.3L485.8-596.3z"/>
	<path opacity="0.2" d="M638.3-487.4c-1.6,0.6-4.2,0.5-5.8-0.1l-17.8-7.8c-1.6-0.7-1.6-1.8,0-2.4l17.8-6.8c1.6-0.6,4.2-0.5,5.8,0.1
		l17.8,7.8c1.6,0.7,1.6,1.8,0,2.4L638.3-487.4z"/>
	<path opacity="0.7" fill="#34C4EC" d="M265-534.6c-6.3,2.4-16.4,2.1-22.7-0.6l-69.8-30.5c-6.3-2.7-6.2-6.9,0-9.3l69.9-26.9
		c6.3-2.4,16.4-2.1,22.7,0.6l69.8,30.5c6.3,2.7,6.2,6.9,0,9.3L265-534.6z"/>
	<path opacity="0.7" fill="#34C4EC" d="M381.7-649.8c-4.5,1.7-11.9,1.6-16.4-0.4l-50.6-22.1c-4.5-2-4.5-5,0-6.7l50.6-19.5
		c4.5-1.7,11.9-1.6,16.4,0.4l50.6,22.1c4.5,2,4.5,5,0,6.7L381.7-649.8z"/>
	<path opacity="0.7" fill="#34C4EC" d="M427.9-475.6c-3.3,1.3-8.6,1.1-11.9-0.3l-36.7-16c-3.3-1.4-3.3-3.6,0-4.9l36.8-14.1
		c3.3-1.3,8.6-1.1,11.9,0.3l36.7,16c3.3,1.4,3.3,3.6,0,4.9L427.9-475.6z"/>
	<path opacity="0.7" fill="#34C4EC" d="M747.5-558.3c-4.9,1.9-12.7,1.7-17.6-0.5l-54.1-23.6c-4.9-2.1-4.8-5.4,0-7.2l54.2-20.8
		c4.9-1.9,12.7-1.7,17.6,0.5l54.1,23.6c4.9,2.1,4.8,5.4,0,7.2L747.5-558.3z"/>
	<path opacity="0.7" fill="#34C4EC" d="M581.1-460c-2.7,1-7.2,0.9-9.9-0.3l-30.4-13.3c-2.7-1.2-2.7-3,0-4.1l30.4-11.7
		c2.7-1,7.2-0.9,9.9,0.3l30.4,13.3c2.7,1.2,2.7,3,0,4.1L581.1-460z"/>
	<path opacity="0.7" fill="#34C4EC" d="M613.3-659c-2.8,1.1-7.4,1-10.2-0.3L571.6-673c-2.8-1.2-2.8-3.1,0-4.2l31.6-12.1
		c2.8-1.1,7.4-1,10.2,0.3l31.5,13.8c2.8,1.2,2.8,3.1,0,4.2L613.3-659z"/>
	<path opacity="0.7" fill="#34C4EC" d="M696.9-709.5c-2.4,0.9-6.2,0.8-8.6-0.2l-26.5-11.6c-2.4-1-2.4-2.6,0-3.5l26.6-10.2
		c2.4-0.9,6.2-0.8,8.6,0.2l26.5,11.6c2.4,1,2.4,2.6,0,3.5L696.9-709.5z"/>
	<path opacity="0.2" d="M696.9-509.2c-2.4,0.9-6.2,0.8-8.6-0.2L661.8-521c-2.4-1-2.4-2.6,0-3.5l26.6-10.2c2.4-0.9,6.2-0.8,8.6,0.2
		l26.5,11.6c2.4,1,2.4,2.6,0,3.5L696.9-509.2z"/>
	<path opacity="0.7" fill="#34C4EC" d="M491.8-730.5c-2.9,1.1-7.5,1-10.4-0.3l-32.1-14c-2.9-1.3-2.9-3.2,0-4.3l32.1-12.3
		c2.9-1.1,7.5-1,10.4,0.3l32.1,14c2.9,1.3,2.9,3.2,0,4.3L491.8-730.5z"/>
	<path opacity="0.7" fill="#34C4EC" d="M517.5-557.9c-4.9,1.9-12.9,1.7-17.8-0.5l-54.9-23.9c-4.9-2.1-4.9-5.4,0-7.3l54.9-21.1
		c4.9-1.9,12.9-1.7,17.8,0.5l54.9,23.9c4.9,2.1,4.9,5.4,0,7.3L517.5-557.9z"/>
	<path opacity="0.7" fill="#34C4EC" d="M638.3-539.5c-1.6,0.6-4.2,0.5-5.8-0.1l-17.8-7.8c-1.6-0.7-1.6-1.8,0-2.4l17.8-6.8
		c1.6-0.6,4.2-0.5,5.8,0.1l17.8,7.8c1.6,0.7,1.6,1.8,0,2.4L638.3-539.5z"/>
	<path opacity="0.7" fill="#34C4EC" d="M303.4-485.2c-1.6,0.6-4.2,0.5-5.8-0.1l-17.8-7.8c-1.6-0.7-1.6-1.8,0-2.4l17.8-6.8
		c1.6-0.6,4.2-0.5,5.8,0.1l17.8,7.8c1.6,0.7,1.6,1.8,0,2.4L303.4-485.2z"/>
	<path opacity="0.2" d="M303.4-434.5c-1.6,0.6-4.2,0.5-5.8-0.1l-17.8-7.8c-1.6-0.7-1.6-1.8,0-2.4l17.8-6.8c1.6-0.6,4.2-0.5,5.8,0.1
		l17.8,7.8c1.6,0.7,1.6,1.8,0,2.4L303.4-434.5z"/>
	<path opacity="0.1" d="M508.6,631.7c-26.1,10-68.3,8.9-94.3-2.4L124.2,502.6c-26-11.4-26-28.7,0.1-38.7l290.6-111.7
		c26.1-10,68.3-8.9,94.3,2.4l290.2,126.7c26,11.4,26,28.7-0.1,38.7L508.6,631.7z"/>
	<path opacity="0.8" fill="#34C4EC" d="M508.6,610.5c-26.1,10-68.3,8.9-94.3-2.4L124.2,481.4c-26-11.4-26-28.7,0.1-38.7l290.6-111.7
		c26.1-10,68.3-8.9,94.3,2.4l290.2,126.7c26,11.4,26,28.7-0.1,38.7L508.6,610.5z"/>
	<g>
		<path opacity="0.7" fill="#34475E" d="M299.7,456.3c-12.2,4.7-32,4.2-44.2-1.1l-136-59.4c-12.2-5.3-12.2-13.4,0-18.1l136.2-52.3
			c12.2-4.7,32-4.2,44.2,1.1l136,59.4c12.2,5.3,12.2,13.4,0,18.1L299.7,456.3z"/>
		<path opacity="0.7" fill="#34475E" d="M485.8,539.1c-12.2,4.7-32,4.2-44.2-1.1l-136-59.4c-12.2-5.3-12.2-13.4,0-18.1l136.2-52.3
			c12.2-4.7,32-4.2,44.2,1.1l136,59.4c12.2,5.3,12.2,13.4,0,18.1L485.8,539.1z"/>
		<path opacity="0.7" fill="#34475E" d="M489.9,383.5c-12.2,4.7-32,4.2-44.2-1.1l-136-59.4c-12.2-5.3-12.2-13.4,0-18.1L446,252.6
			c12.2-4.7,32-4.2,44.2,1.1l136,59.4c12.2,5.3,12.2,13.4,0,18.1L489.9,383.5z"/>
		<path opacity="0.7" fill="#34475E" d="M676.1,466.3c-12.2,4.7-32,4.2-44.2-1.1l-136-59.4c-12.2-5.3-12.2-13.4,0-18.1l136.2-52.3
			c12.2-4.7,32-4.2,44.2,1.1l136,59.4c12.2,5.3,12.2,13.4,0,18.1L676.1,466.3z"/>
	</g>
	<path fill="#72B8C2" d="M464.9,221.5"/>
	<path opacity="0.7" fill="#72B8C2" d="M508.6,457.8c-26.1,10-68.3,8.9-94.3-2.4L124.2,328.7c-26-11.4-26-28.7,0.1-38.7l290.6-111.7
		c26.1-10,68.3-8.9,94.3,2.4l290.2,126.7c26,11.4,26,28.7-0.1,38.7L508.6,457.8z"/>
	<path opacity="0.2" d="M686.4,360.3c-6.1,2.3-16,2.1-22-0.6L389.5,243.1c-6.1-2.7-6.1-6.7,0-9l67.9-26.1c6.1-2.3,16-2.1,22,0.6
		l274.8,116.7c6.1,2.7,6.1,6.7,0,9L686.4,360.3z"/>
	<path opacity="0.2" d="M297,340.4c-1.8,0.7-4.8,0.6-6.6-0.2l-82.2-34.9c-1.8-0.8-1.8-2,0-2.7l20.3-7.8c1.8-0.7,4.8-0.6,6.6,0.2
		l82.2,34.9c1.8,0.8,1.8,2,0,2.7L297,340.4z"/>
	<path opacity="0.2" d="M398.3,382.8c-1.8,0.7-4.8,0.6-6.6-0.2l-82.2-34.9c-1.8-0.8-1.8-2,0-2.7l20.3-7.8c1.8-0.7,4.8-0.6,6.6,0.2
		l82.2,34.9c1.8,0.8,1.8,2,0,2.7L398.3,382.8z"/>
	<path opacity="0.2" d="M496,425.6c-1.8,0.7-4.8,0.6-6.6-0.2l-82.2-34.9c-1.8-0.8-1.8-2,0-2.7l20.3-7.8c1.8-0.7,4.8-0.6,6.6,0.2
		l82.2,34.9c1.8,0.8,1.8,2,0,2.7L496,425.6z"/>
	<path opacity="0.2" d="M472.5,441.7c-6.1,2.3-16,2.1-22-0.6L175.6,324.4c-6.1-2.7-6.1-6.7,0-9l8.1-4c6.1-2.3,16-2.1,22,0.6
		l274.8,116.7c6.1,2.7,6.1,6.7,0,9L472.5,441.7z"/>
	<ellipse opacity="0.2" cx="346.1" cy="284.1" rx="38.9" ry="22.2"/>
	<g>
		<path opacity="0.7" fill="#FDFDFE" d="M683.2,332.8c-6.1,2.3-16,2.1-22-0.6L386.3,215.6c-6.1-2.7-6.1-6.7,0-9l67.9-26.1
			c6.1-2.3,16-2.1,22,0.6l274.8,116.7c6.1,2.7,6.1,6.7,0,9L683.2,332.8z"/>
		<path opacity="0.7" fill="#FDFDFE" d="M293.8,312.9c-1.8,0.7-4.8,0.6-6.6-0.2L205,277.8c-1.8-0.8-1.8-2,0-2.7l20.3-7.8
			c1.8-0.7,4.8-0.6,6.6,0.2l82.2,34.9c1.8,0.8,1.8,2,0,2.7L293.8,312.9z"/>
		<path opacity="0.7" fill="#FDFDFE" d="M395,355.3c-1.8,0.7-4.8,0.6-6.6-0.2l-82.2-34.9c-1.8-0.8-1.8-2,0-2.7l20.3-7.8
			c1.8-0.7,4.8-0.6,6.6,0.2l82.2,34.9c1.8,0.8,1.8,2,0,2.7L395,355.3z"/>
		<path opacity="0.7" fill="#FDFDFE" d="M492.7,398.2c-1.8,0.7-4.8,0.6-6.6-0.2L404,363.1c-1.8-0.8-1.8-2,0-2.7l20.3-7.8
			c1.8-0.7,4.8-0.6,6.6,0.2l82.2,34.9c1.8,0.8,1.8,2,0,2.7L492.7,398.2z"/>
		<path opacity="0.7" fill="#FDFDFE" d="M469.3,414.2c-6.1,2.3-16,2.1-22-0.6L172.4,297c-6.1-2.7-6.1-6.7,0-9l8.1-4
			c6.1-2.3,16-2.1,22,0.6l274.8,116.7c6.1,2.7,6.1,6.7,0,9L469.3,414.2z"/>
		<ellipse opacity="0.7" fill="#FDFDFE" cx="342.9" cy="256.7" rx="38.9" ry="22.2"/>
	</g>
	<path opacity="0.8" fill="#34475E" d="M-493.1,669.3c-26.4,10.1-69.2,9-95.5-2.5l-294-128.3c-26.4-11.5-26.3-29,0.1-39.2
		l294.4-113.1c26.4-10.1,69.2-9,95.5,2.5l294,128.3c26.4,11.5,26.3,29.1-0.1,39.2L-493.1,669.3z"/>
	<path opacity="0.1" fill="#070909" d="M-493.1,691.6c-26.4,10.1-69.2,9-95.5-2.5l-294-128.3c-26.4-11.5-26.3-29,0.1-39.2
		l294.4-113.1c26.4-10.1,69.2-9,95.5,2.5l294,128.3c26.4,11.5,26.3,29.1-0.1,39.2L-493.1,691.6z"/>
	<path opacity="0.1" fill="#070909" d="M518,1582.7c-26.4,10.1-69.2,9-95.5-2.5l-294-128.3c-26.4-11.5-26.3-29,0.1-39.2L423,1299.6
		c26.4-10.1,69.2-9,95.5,2.5l294,128.3c26.4,11.5,26.3,29.1-0.1,39.2L518,1582.7z"/>
	<path opacity="0.7" fill="#72B8C2" d="M-493.1,595.8c-26.4,10.1-69.2,9-95.5-2.5l-294-128.3c-26.4-11.5-26.3-29,0.1-39.2
		l294.4-113.1c26.4-10.1,69.2-9,95.5,2.5l294,128.3c26.4,11.5,26.3,29.1-0.1,39.2L-493.1,595.8z"/>
	<path opacity="0.7" fill="#2D6A99" d="M-493.1,520.8c-26.4,10.1-69.2,9-95.5-2.5l-294-128.3c-26.4-11.5-26.3-29,0.1-39.2
		l294.4-113.1c26.4-10.1,69.2-9,95.5,2.5l294,128.3c26.4,11.5,26.3,29.1-0.1,39.2L-493.1,520.8z"/>
	<g>
		<polygon opacity="0.2" fill="#070909" points="-625.7,331.1 -550.9,364 -479.9,334.6 -550.9,302.2 		"/>
		<g>
			<polygon opacity="0.8" fill="#72B8C2" points="-625.7,107.4 -550.9,140 -550.9,338.2 -625.7,304.3 			"/>
			<polygon opacity="0.8" fill="#68AAAE" points="-550.9,140 -550.9,338.2 -479.9,310.4 -479.9,110.6 			"/>
			<polygon opacity="0.8" fill="#767778" points="-625.7,107.1 -550.9,140 -479.9,110.6 -550.9,78.2 			"/>
		</g>
	</g>
	<g>
		<polygon opacity="0.2" fill="#070909" points="-455.5,375.5 -364.7,418.7 -273.2,381.2 -364.4,340.2 		"/>
		<g>
			<polygon opacity="0.7" fill="#202933" points="-364.4,208.3 -279.7,175.1 -279.7,359.1 -364.4,394.2 			"/>
			<polygon opacity="0.7" fill="#242F3B" points="-455.9,108.1 -364.4,208.3 -364.4,394.2 -455.9,352.1 			"/>
			<polygon opacity="0.8" fill="#767778" points="-455.9,108.1 -363.9,77.5 -279.7,175.1 -364.4,208.3 			"/>
		</g>
	</g>
	<g>
		<polygon opacity="0.2" fill="#070909" points="-781.3,372.7 -715.3,403.7 -649.5,376.2 -715.4,346.7 		"/>
		<g>
			<polygon opacity="0.7" fill="#34C4EC" points="-783.3,165.8 -715.9,292.2 -715.4,375.2 -783.3,344.4 			"/>
			<polygon opacity="0.7" fill="#30B9D8" points="-715.9,292.2 -715.4,375.2 -651,350 -651,168.7 			"/>
			<polygon opacity="0.8" fill="#767778" points="-783.3,165.5 -715.9,292.2 -651,168.7 -717.3,138.5 			"/>
		</g>
	</g>
	<g>
		<polygon opacity="0.2" fill="#070909" points="-642.2,419.2 -459.3,418.1 -550.6,458.2 		"/>
		<g>
			<polygon opacity="0.8" fill="#7C9CB5" points="-550.7,318.5 -550.7,431.2 -459.5,394.8 -459.5,278.4 			"/>
			<polygon opacity="0.8" fill="#80A2C0" points="-642.3,279.5 -642.3,388.6 -550.7,431.2 -550.7,318.5 			"/>
			<polygon opacity="0.8" fill="#767778" points="-642.3,279.5 -459.5,278.4 -550.7,318.5 			"/>
		</g>
	</g>
	<path opacity="0.8" fill="#418BBC" d="M518,1560.4c-26.4,10.1-69.2,9-95.5-2.5l-294-128.3c-26.4-11.5-26.3-29,0.1-39.2L423,1277.3
		c26.4-10.1,69.2-9,95.5,2.5l294,128.3c26.4,11.5,26.3,29.1-0.1,39.2L518,1560.4z"/>
	<path opacity="0.8" fill="#34475E" d="M518,1486.9c-26.4,10.1-69.2,9-95.5-2.5l-294-128.3c-26.4-11.5-26.3-29,0.1-39.2L423,1203.8
		c26.4-10.1,69.2-9,95.5,2.5l294,128.3c26.4,11.5,26.3,29.1-0.1,39.2L518,1486.9z"/>
	<path opacity="0.8" fill="#34C4EC" d="M518,1411.9c-26.4,10.1-69.2,9-95.5-2.5l-294-128.3c-26.4-11.5-26.3-29,0.1-39.2L423,1128.8
		c26.4-10.1,69.2-9,95.5,2.5l294,128.3c26.4,11.5,26.3,29.1-0.1,39.2L518,1411.9z"/>
	<path opacity="0.1" fill="#070909" d="M256.2,1307.7c62.4-23.9,124.2-47.7,186.3-71.5c4.3,1.9,8.5,3.8,13.1,5.8
		c1.4-0.6,2.6-1,3.7-1.4c17.8-6.8,35.8-13.6,53.4-20.5c30.5-12,72-15,98-7.9c14.4,4,20.8,11,26.4,18.2c4,14.5-6.2,25.2-27.1,36.1
		c-2.6,1.4-5.8,2.6-8.9,3.9c-18.4,7.1-22.7,7.8-41.1,14.9c-1.2,0.4-2.3,0.9-3.8,1.4c4,1.8,7.7,3.6,11.7,5.2c1.9,0.8,1.5,1.3-1.1,2.3
		c-59.9,23-119.8,45.9-179.6,68.9c-2.9,1.1-4.3,1.1-6.2,0.3c-26.6-11.9-53.3-23.8-80-35.7c-13.9-6.2-27.8-12.4-41.7-18.6
		C258.3,1308.7,257.3,1308.3,256.2,1307.7z M541.6,1280.2c1.3-0.5,2.4-0.9,3.4-1.3c15.3-5.9,30.8-11.7,45.9-17.7
		c16.3-6.5,25.3-13.8,26.5-21.7c1.3-9-10.6-14.2-26.6-17.7c-18.6-4.1-49.2-0.6-70.8,7.5c-16,6-31.7,12.1-47.5,18.2
		c-0.8,0.3-1.4,0.6-2.2,1C494.1,1259,517.7,1269.5,541.6,1280.2z M390.9,1320.7c1-0.5,1.7-0.9,2.3-1.2c9.6-5.3,19.3-10.6,28.7-16
		c2-1.1,3.8-1.6,6.8-1.7c11.5-0.5,22.8-4.9,24.6-9.5c1.9-4.9-6.2-8.2-18.3-7.5c-11.4,0.7-22.4,5.2-23.7,9.9c-0.3,1.1-1.4,1.8-4,2.5
		c-11.7,3-23.3,6.1-34.9,9.2c-2.7,0.7-5.4,1.5-8.5,2.4C373.2,1312.8,381.9,1316.7,390.9,1320.7z"/>
	<path opacity="0.7" fill="#FDFDFE" d="M257.1,1278c62.4-23.9,124.2-47.7,186.3-71.5c4.3,1.9,8.5,3.8,13.1,5.8
		c1.4-0.6,2.6-1,3.7-1.4c17.8-6.8,35.8-13.6,53.4-20.5c30.5-12,72-15,98-7.9c14.4,4,21.4,8.2,26.9,15.4c3.8,10.5,1.4,23.4-19.5,34.2
		c-2.6,1.4-5.6,3.7-8.7,4.9c-18.4,7.1-31,11.4-49.4,18.5c-1.2,0.4-2.3,0.9-3.8,1.4c4,1.8,7.7,3.6,11.7,5.2c1.9,0.8,1.5,1.3-1.1,2.3
		c-59.9,23-119.8,45.9-179.6,68.9c-2.9,1.1-4.3,1.1-6.2,0.3c-26.6-11.9-53.3-23.8-80-35.7c-13.9-6.2-27.8-12.4-41.7-18.6
		C259.2,1279,258.3,1278.6,257.1,1278z M542.6,1250.5c1.3-0.5,2.4-0.9,3.4-1.3c15.3-5.9,30.8-11.7,45.9-17.7
		c16.3-6.5,25.3-13.8,26.5-21.7c1.3-9-10.6-14.2-26.6-17.7c-18.6-4.1-49.2-0.6-70.8,7.5c-16,6-31.7,12.1-47.5,18.2
		c-0.8,0.3-1.4,0.6-2.2,1C495.1,1229.3,518.6,1239.8,542.6,1250.5z M391.9,1291c1-0.5,1.7-0.9,2.3-1.2c9.6-5.3,19.3-10.6,28.7-16
		c2-1.1,3.8-1.6,6.8-1.7c11.5-0.5,22.8-4.9,24.6-9.5c1.9-4.9-6.2-8.2-18.3-7.5c-11.4,0.7-22.4,5.2-23.7,9.9c-0.3,1.1-1.4,1.8-4,2.5
		c-11.7,3-23.3,6.1-34.9,9.2c-2.7,0.7-5.4,1.5-8.5,2.4C374.1,1283.1,382.8,1287,391.9,1291z"/>
</g>
</svg>
